<?xml version="1.0" encoding="utf-8"?>
<!-- Generator: Adobe Illustrator 18.1.1, SVG Export Plug-In . SVG Version: 6.00 Build 0)  -->
<!DOCTYPE svg PUBLIC "-//W3C//DTD SVG 1.1//EN" "http://www.w3.org/Graphics/SVG/1.1/DTD/svg11.dtd">
<svg version="1.1" id="Layer_1" xmlns="http://www.w3.org/2000/svg" xmlns:xlink="http://www.w3.org/1999/xlink" x="0px" y="0px"
	 viewBox="0 0 800 800" enable-background="new 0 0 800 800" xml:space="preserve">
<g>
	<g>
		<path fill="#FFFFFF" d="M400.3,796.2c-106.2,0-206.1-41.4-281.2-116.5S2.7,504.8,2.7,398.5S44,192.5,119.1,117.3
			C194.2,42.2,294.1,0.9,400.3,0.9s206.1,41.4,281.2,116.5c75.1,75.1,116.5,175,116.5,281.2s-41.4,206.1-116.5,281.2
			S506.5,796.2,400.3,796.2z M400.3,14.6c-102.6,0-199,39.9-271.5,112.5C56.3,199.6,16.4,296,16.4,398.5s39.9,199,112.5,271.5
			c72.5,72.5,168.9,112.5,271.5,112.5s199-39.9,271.5-112.5c72.5-72.5,112.5-168.9,112.5-271.5s-39.9-199-112.5-271.5
			C599.3,54.5,502.9,14.6,400.3,14.6z"/>
	</g>
	<g>
		<path fill="#FFFFFF" d="M398.6,182.2c58.8,0,114.1,22.9,155.7,64.5c41.6,41.6,64.5,96.9,64.5,155.7s-22.9,114.1-64.5,155.7
			c-41.6,41.6-96.9,64.5-155.7,64.5s-114.1-22.9-155.7-64.5c-41.6-41.6-64.5-96.9-64.5-155.7s22.9-114.1,64.5-155.7
			C284.5,205.1,339.8,182.2,398.6,182.2 M398.6,170.3c-128.2,0-232.1,103.9-232.1,232.1s103.9,232.1,232.1,232.1
			s232.1-103.9,232.1-232.1S526.7,170.3,398.6,170.3L398.6,170.3z"/>
	</g>
	<g>
		<g>
			<g>
				<path fill="#FFFFFF" d="M383.9,341.1c1.5,7.1,4,20.2,4,28.1l-18,57.6c2.2,1,4.5,1.8,6.8,2.5c0.9-3.1,13.6-43.6,21.9-55.2
					c8.2,11.6,20.9,51.8,21.9,55.2c2.3-0.7,4.6-1.6,6.8-2.6l-18.1-57.5c0-7.9,2.5-21.1,4-28.2c3.5-1.3,54.2-4.5,54.2-4.5l-0.1-0.4
					c-0.7-1.9-1.4-3.8-2.2-5.7l-51,5.7c0,0,0,0,0,0l-15.6,0.8l-15.7-0.8c0,0,0,0,0,0l-51-5.7c-0.8,1.8-1.5,3.7-2.2,5.7l-0.1,0.4
					C329.6,336.6,381,339.9,383.9,341.1z"/>
			</g>
			<g>
				<g>
					<path fill="#FFFFFF" d="M398.6,562.9l-4.7-3.5c-32-23.8-61.3-56.5-82.6-92c-21.9-36.4-34-73.7-34-105.1
						c0-32.4,12.6-62.8,35.5-85.7c22.9-22.9,53.3-35.5,85.7-35.5c32.4,0,62.8,12.6,85.7,35.5c22.9,22.9,35.5,53.3,35.5,85.7
						c0,16.1-3.1,33.6-9.3,52c-5.8,17.4-14.3,35.3-25,53.1c-21.3,35.2-50.5,67.9-82.2,91.9L398.6,562.9z M398.6,256.7
						c-58.3,0-105.7,47.4-105.7,105.7c0,28.6,11.3,63,31.7,97.1c19.3,32,45.4,61.6,73.9,83.9c28.3-22.5,54.3-52.1,73.6-84
						c20.7-34.2,32.1-68.7,32.1-97.1C504.2,304.1,456.8,256.7,398.6,256.7z M398.6,440.7c-44.4,0-80.6-36.2-80.6-80.8
						c0-8.7,1.4-17.4,4.2-25.7l0.1-0.4l0.2-0.6c0.7-1.9,1.4-3.9,2.3-5.8l2.3-5.2l0.3,0c13.9-26.4,41.3-43.1,71.3-43.1
						c30,0,57.4,16.7,71.3,43.1l0.3,0l2.3,5.2c0.8,1.9,1.6,3.9,2.3,5.8l0.2,0.6l0.1,0.4c2.8,8.3,4.2,16.9,4.2,25.7
						C479.1,404.5,443,440.7,398.6,440.7z M337.3,337.8l-0.1,0.4l-0.2,0.6c-2.4,6.9-3.5,14-3.5,21.2c0,36,29.2,65.3,65.1,65.3
						c35.9,0,65.1-29.3,65.1-65.3c0-7.2-1.2-14.4-3.5-21.2l-0.2-0.6l-0.1-0.4c-0.2-0.4-0.3-0.9-0.5-1.3l-1.2-2.8
						c-10.4-23.7-33.8-39-59.6-39c-25.8,0-49.2,15.3-59.6,39l-1.2,2.8C337.6,336.9,337.4,337.3,337.3,337.8z"/>
				</g>
				<g>
					<path fill="#FFFFFF" d="M398.5,333.9c3.8,0,6.9-5.4,6.9-10.3c0-4.9-3-7.7-6.8-7.7c-3.7,0-6.8,2.8-6.8,7.7
						C391.9,328.4,394.8,333.9,398.5,333.9z"/>
				</g>
			</g>
		</g>
	</g>
	<g>
		<polygon fill="#FFFFFF" points="250.5,185.4 244.2,177.5 221.6,195.5 186.1,151.1 177,158.4 218.8,210.7 		"/>
		
			<rect x="221.1" y="139.2" transform="matrix(0.4804 0.877 -0.877 0.4804 259.4636 -147.9009)" fill="#FFFFFF" width="67" height="11.6"/>
		<polygon fill="#FFFFFF" points="322.7,124.9 319.6,115.9 296.1,123.8 289.4,103.9 316.8,94.6 313.5,84.9 275.1,97.9 296.5,161.4 
			307.5,157.7 299.2,132.9 		"/>
		<polygon fill="#FFFFFF" points="391.7,141.1 390.7,131 361.9,133.9 360,114.9 386.2,112.2 385.2,102.8 359,105.5 357.2,87.5 
			386,84.6 384.9,74.4 344.6,78.5 351.4,145.2 		"/>
		<path fill="#FFFFFF" d="M467.1,151.9c9,2.2,16.9,2.2,25.6-0.1l7.3-29.5l-24.4-6l-2.2,8.9l14,3.5l-3.5,14.3l-1.5,0.4
			c-3.6,0.9-6.5,0.7-12-0.6c-13.5-3.3-20.5-15.6-17-29.8c2.9-11.6,11.2-18.6,22.2-18.6c2.4,0,4.9,0.3,7.5,1
			c4.9,1.2,9.6,3.5,13.8,6.7l6.7-7.6c-6-4.9-11.9-7.9-19-9.6c-3.3-0.8-6.7-1.2-10-1.2c-16.4,0-29.6,10.3-33.5,26.3
			C436.3,129.3,447.3,147,467.1,151.9z"/>
		<path fill="#FFFFFF" d="M532.7,153.4c1.5,0.9,2.6,1.6,4.3,2.5c5.5,3,10.8,4.6,15.7,4.6c7.9,0,14.6-4.2,18.8-11.8
			c6.9-12.5,1.3-25.7-14.6-34.5c-4.6-2.5-9.9-5.1-15.8-7.7l-32.3,58.2l10.2,5.6l10.5-18.9L532.7,153.4z M546.2,121.1l2.1,0.9
			c2.5,1,3.9,1.7,5.9,2.8c4,2.2,6.7,5.1,7.7,8.5c1,3.2,0.6,6.6-1.2,9.9c-3.2,5.7-7.6,6.9-10.8,6.9c-2.9,0-6.1-1-9.5-2.9
			c-0.9-0.5-1.7-1-2.7-1.6c-0.5-0.3-1-0.6-1.7-1.1l-2.1-1.3L546.2,121.1z"/>
		<path fill="#FFFFFF" d="M621.7,177.6l8.5-5.6c-1.6-4.4-5.4-10.3-10.2-14.5c-5.3-4.6-10.9-7-16.4-7c-5,0-9.6,2-12.8,5.7
			c-5.6,6.4-5.8,14.2-0.6,24.4c5.4,10.5,5.9,15.2,2.3,19.4c-1.7,2-3.9,3-6.3,3c-2.5,0-5-1.1-7.6-3.4c-4.6-4-8.4-10-10.5-16.5
			l-8.9,5.5c2.3,6.7,7.1,14.1,12.1,18.5c5.2,4.5,10.8,6.9,16.2,6.9c5.5,0,10.5-2.4,14.3-6.7c5-5.7,6.8-11.9,0.5-24.9
			c-4.4-9-6.8-13.9-2.5-18.8c1.5-1.7,3.5-2.6,5.8-2.6c2.6,0,5.4,1.2,8.1,3.6C617.2,167.7,620,172.9,621.7,177.6z"/>
	</g>
	<g>
		<path fill="#FFFFFF" d="M761.8,398.5C761.8,199.2,599.7,37,400.3,37C201,37,38.8,199.2,38.8,398.5c0,73.5,22.1,142,60,199.2
			l-36.3,8.9l6,9.4c6,9.4,12.5,18.8,19.4,27.7c75.1,98.2,189,154.5,312.4,154.5c135.1,0,259.1-68.1,331.8-182.2l6.1-9.6l-36.8-8.1
			C739.6,541,761.8,472.3,761.8,398.5z M52.5,398.5c0-191.8,156.1-347.9,347.9-347.9c191.8,0,347.9,156.1,347.9,347.9
			c0,69.4-20.5,134.2-55.7,188.6l-28.8-67.8l-7.8,15.3c-49.2,96.9-147.2,157.1-255.8,157.1c-93.3,0-181-45.6-234.7-122
			c-7.8-11.2-14.9-23-21.1-35.1l-7.7-15.2l-29,67.2C72.8,532.3,52.5,467.8,52.5,398.5z M712.3,617
			C641.8,720.7,526,782.3,400.3,782.3c-118.4,0-227.7-54-299.8-148.2c-4.3-5.6-8.5-11.4-12.5-17.3l20.5-5l6.5-1.6l3.4-8l19.7-45.7
			c4.4,7.7,9.2,15.2,14.3,22.4c56.7,80.7,149.3,128.8,247.7,128.8c109,0,207.9-57.5,262-151.1l19.6,46.1l3.6,8.4l6.2,1.4L712.3,617z
			"/>
	</g>
	<g>
		<path fill="#FFFFFF" d="M227.2,723.8c-12.7-8.3-17.3-23.8-8.3-37.5c9-13.7,25.4-15.9,37.9-7.7c6.3,4.2,9.9,9.5,12.1,14.8l-3.3,1.8
			c-2.3-5.3-5.8-10.2-11-13.6c-10.8-7.1-24.2-4.8-32,7c-7.8,11.9-4.1,25,6.6,32.1c5.2,3.4,11.2,4.6,16.9,4.7l-0.6,3.5
			C239.9,729,233.5,727.9,227.2,723.8z"/>
		<path fill="#FFFFFF" d="M262.3,742.5l20.3-48.4l27.3,11.5l-1.4,3.3l-23.6-9.9l-7.9,18.9l21.3,8.9l-1.4,3.3l-21.3-8.9l-8.2,19.5
			l23.6,9.9l-1.4,3.4L262.3,742.5z"/>
		<path fill="#FFFFFF" d="M339,767.5l-9-24.1c-1.4-0.1-2.9-0.4-4.5-0.8c-1.8-0.4-4.5-1.2-6.1-1.8l-4.9,20.7l-4-0.9l12-50.5
			c3.9,0.4,7.2,0.8,11.1,1.8c12.6,3,17.9,10.8,15.8,19.7c-1.7,7-7.2,11.4-15.3,11.9l9.7,25.1L339,767.5z M333.2,715.6
			c-2.6-0.6-5-1-7.5-1.1l-5.5,23c1.7,0.6,4.2,1.4,6.3,1.9c10.2,2.4,16.9-1.1,18.6-8.5C346.8,724.1,342.9,717.9,333.2,715.6z"/>
		<path fill="#FFFFFF" d="M383.1,723.6l-3.4,48.8l-4.1-0.3l3.4-48.8l-17.8-1.2l0.2-3.6l39.5,2.7l-0.2,3.6L383.1,723.6z"/>
		<path fill="#FFFFFF" d="M415.2,772.7l-2.7-52.4l4-0.2l2.7,52.4L415.2,772.7z"/>
		<path fill="#FFFFFF" d="M436.8,721.9l3.5,21.1l22.8-3.8l0.6,3.5l-22.8,3.8l3.9,23.6l-4,0.7l-8.6-51.7l29.2-4.9l0.6,3.5
			L436.8,721.9z"/>
		<path fill="#FFFFFF" d="M487.9,761l-14.5-50.4l3.9-1.1l14.5,50.4L487.9,761z"/>
		<path fill="#FFFFFF" d="M512.6,753.3l-20.3-48.4l27.3-11.5l1.4,3.3l-23.6,9.9l7.9,18.9l21.3-9l1.4,3.3l-21.3,9l8.2,19.5l23.6-9.9
			l1.4,3.4L512.6,753.3z"/>
		<path fill="#FFFFFF" d="M571.4,724.7c-4.2,2.7-8.4,5-11.4,6.4l-28.3-43.3c2.5-2.1,6.1-5,10.2-7.7c16.3-10.7,32-5.6,39.3,5.6
			C589.2,697.9,587.7,714.1,571.4,724.7z M543.9,683.1c-2.8,1.8-5.5,3.9-7.1,5.3l24.8,37.9c2-0.9,4.7-2.4,8-4.5
			c13.9-9.1,15.3-22.4,8-33.6C570.8,677.7,557.8,674,543.9,683.1z"/>
	</g>
	<g>
		<path fill="#FFFFFF" d="M124.7,638.8c-0.2-0.2-0.3-0.5-0.4-0.8c-0.1-0.6,0.2-1.2,0.8-1.5l15.2-7.1l-2.1-16.6
			c-0.1-0.6,0.2-1.2,0.8-1.5c0.6-0.3,1.2-0.1,1.6,0.3l0,0l11.5,12.3l15.2-7.2c0.6-0.3,1.2-0.1,1.6,0.3l0,0c0.4,0.5,0.5,1.1,0.2,1.7
			l-8.1,14.7l11.5,12.2l0,0c0.4,0.4,0.5,1.1,0.2,1.7c-0.3,0.5-0.9,0.8-1.5,0.7l-16.5-3.2l-8,14.7c-0.3,0.5-0.9,0.8-1.5,0.7
			c-0.6-0.1-1.1-0.6-1.1-1.2l-2.1-16.7l-16.5-3.1C125.1,639.1,124.9,639,124.7,638.8z M141.5,616.7l1.7,13.3
			c0.1,0.6-0.2,1.2-0.8,1.5l-12.2,5.7l13.2,2.5c0.6,0.1,1.1,0.6,1.1,1.2l1.7,13.3l6.4-11.8c0.3-0.5,0.9-0.8,1.5-0.7l13.2,2.5
			l-9.2-9.8l0,0c-0.4-0.4-0.5-1.1-0.2-1.7l6.5-11.8l-12.1,5.7c-0.6,0.3-1.2,0.1-1.6-0.3l0,0L141.5,616.7z"/>
	</g>
	<g>
		<path fill="#FFFFFF" d="M674.4,639.2l-16.5,3.1l-2.1,16.7c-0.1,0.6-0.5,1.1-1.1,1.2c-0.6,0.1-1.2-0.2-1.5-0.7l-8-14.7l-16.5,3.2
			c-0.6,0.1-1.2-0.2-1.5-0.7c-0.3-0.5-0.2-1.2,0.2-1.7l0,0l11.5-12.2l-8.1-14.7c-0.3-0.5-0.2-1.2,0.2-1.7l0,0
			c0.4-0.4,1.1-0.6,1.6-0.3l15.2,7.2l11.5-12.3l0,0c0.4-0.5,1.1-0.6,1.6-0.3c0.6,0.3,0.9,0.9,0.8,1.5l-2.1,16.6l15.2,7.1
			c0.6,0.3,0.9,0.9,0.8,1.5c0,0.3-0.2,0.6-0.4,0.8C675,639,674.7,639.1,674.4,639.2z M649.1,626.6L649.1,626.6
			c-0.4,0.4-1.1,0.6-1.6,0.3l-12.1-5.7l6.5,11.8c0.3,0.5,0.2,1.2-0.2,1.7l0,0l-9.2,9.8l13.2-2.5c0.6-0.1,1.2,0.2,1.5,0.7l6.4,11.8
			l1.7-13.3c0.1-0.6,0.5-1.1,1.1-1.2l13.2-2.5l-12.2-5.7c-0.6-0.3-0.9-0.9-0.8-1.5l1.7-13.3L649.1,626.6z"/>
	</g>
	<g opacity="0.3">
		<path fill="#FFFFFF" d="M635.7,189c4.1-3.4,10-2.9,13.3,1.1c3.3,4,2.6,10-1.5,13.3c-4,3.3-9.9,2.8-13.2-1.2
			C631,198.1,631.7,192.2,635.7,189z M646.5,202.2c3.5-2.9,4.1-7.9,1.4-11.2c-2.7-3.3-7.8-3.7-11.3-0.8c-3.4,2.8-4.1,7.8-1.3,11.2
			C638,204.7,643.1,205,646.5,202.2z M643.3,190.9c0.6,0.5,1.1,1.1,1.7,1.8c1.6,2,1.4,3.8,0.2,4.8c-0.9,0.8-2.2,1-3.2,0.4l-1.4,4.2
			l-1.2-1.4l1.3-3.7c-0.2-0.2-0.4-0.4-0.5-0.5c-0.1-0.1-0.3-0.3-0.5-0.7l-2.6,2.1l-1-1.2L643.3,190.9z M640.8,195
			c0.2,0.3,0.4,0.6,0.6,0.8c0.9,1.1,1.9,1.2,2.8,0.5c0.7-0.6,0.7-1.6-0.1-2.6c-0.2-0.3-0.5-0.6-0.7-0.8L640.8,195z"/>
	</g>
</g>
</svg>
