<?xml version="1.0" encoding="utf-8"?>
<!-- Generator: Adobe Illustrator 18.1.1, SVG Export Plug-In . SVG Version: 6.00 Build 0)  -->
<!DOCTYPE svg PUBLIC "-//W3C//DTD SVG 1.1//EN" "http://www.w3.org/Graphics/SVG/1.1/DTD/svg11.dtd">
<svg version="1.1" id="Layer_1" xmlns="http://www.w3.org/2000/svg" xmlns:xlink="http://www.w3.org/1999/xlink" x="0px" y="0px"
	 viewBox="0 0 547 56" enable-background="new 0 0 547 56" xml:space="preserve">
<g>
	<path fill="#FFFFFF" d="M47.4,54.6l-0.7-32.2L29.7,48.1h-1.1L11.6,22.4L11,54.6H2L4.2,0.3l1.4-0.1l23.8,35.6L52.7,0.2l1.5,0.1
		l2.3,54.3H47.4z"/>
	<path fill="#FFFFFF" d="M70.7,54.6V1h32.7v8.3H79.8v14.1h21.3v8.1H79.8v14.9h23.6v8.3H70.7z"/>
	<path fill="#FFFFFF" d="M162.1,54.6l-0.7-32.2l-16.9,25.6h-1.1l-17.1-25.7l-0.6,32.2h-9L119,0.3l1.4-0.1l23.8,35.6l23.2-35.6
		l1.5,0.1l2.3,54.3H162.1z"/>
	<path fill="#FFFFFF" d="M199.9,55.2c-4.5,0-9.9-0.4-14.5-1V1.5c4-0.6,9.4-1,13.8-1c14.1,0,21.1,6.9,21.1,14.1
		c0,5.6-2.6,9.7-9.4,12.2c7.8,2.2,10.8,7,10.8,12.9C221.7,47.7,214.3,55.2,199.9,55.2z M200.8,8.4c-2.3,0-4.5,0.2-6.4,0.5v14.9
		c1.3,0.1,3.1,0.2,5.4,0.2c7.8,0,11-3.4,11-7.9S207.5,8.4,200.8,8.4z M200,30.5c-1.9,0-4.3,0.1-5.6,0.2v16.1c1.8,0.2,4,0.4,6.5,0.4
		c7.3,0,11-3.4,11-8.5C211.9,34.1,207.9,30.5,200,30.5z"/>
	<path fill="#FFFFFF" d="M233.8,54.6V1h32.7v8.3H243v14.1h21.3v8.1H243v14.9h23.6v8.3H233.8z"/>
	<path fill="#FFFFFF" d="M309.8,54.6L298,35.3c-1,0.1-1.8,0.1-2.9,0.1c-1.8,0-3.6-0.1-5.3-0.1v19.4h-9.2V1.5
		c4.2-0.5,8.7-0.9,14.1-0.9c15.2,0,22,7.4,22,16.9c0,7-3.8,12.6-10.5,15.5l14.1,21.6H309.8z M296,8.8c-2.2,0-4.3,0.1-6.2,0.4v18.3
		c1.7,0.2,3.5,0.3,5.3,0.3c8,0,12-3.7,12-9.9C307.1,12.5,303,8.8,296,8.8z"/>
	<path fill="#FFFFFF" d="M384.3,54.6l-5.2-12.3h-21.2l-5.2,12.3h-9.4L368,0.2h1.3L394,54.6H384.3z M368.5,17.1l-7.6,17.9h15.2
		L368.5,17.1z"/>
	<path fill="#FFFFFF" d="M432.1,54.6l-11.7-19.3c-1,0.1-1.8,0.1-2.9,0.1c-1.8,0-3.6-0.1-5.3-0.1v19.4H403V1.5
		c4.2-0.5,8.7-0.9,14.1-0.9c15.2,0,22,7.4,22,16.9c0,7-3.8,12.6-10.5,15.5l14.1,21.6H432.1z M418.3,8.8c-2.2,0-4.3,0.1-6.2,0.4v18.3
		c1.7,0.2,3.5,0.3,5.3,0.3c8,0,12-3.7,12-9.9C429.4,12.5,425.3,8.8,418.3,8.8z"/>
	<path fill="#FFFFFF" d="M452.6,54.6V1h32.7v8.3h-23.6v14.1H483v8.1h-21.3v14.9h23.6v8.3H452.6z"/>
	<path fill="#FFFFFF" d="M534.4,54.6l-5.2-12.3h-21.2l-5.2,12.3h-9.4L518,0.2h1.3L544,54.6H534.4z M518.5,17.1l-7.6,17.9h15.2
		L518.5,17.1z"/>
</g>
</svg>
