<?xml version="1.0" standalone="no"?>
<!DOCTYPE svg PUBLIC "-//W3C//DTD SVG 20010904//EN"
 "http://www.w3.org/TR/2001/REC-SVG-20010904/DTD/svg10.dtd">
<svg version="1.0" xmlns="http://www.w3.org/2000/svg"
 width="553.000000pt" height="553.000000pt" viewBox="0 0 553.000000 553.000000"
 preserveAspectRatio="xMidYMid meet">
<metadata>
Created by potrace 1.11, written by Peter Selinger 2001-2013
</metadata>
<g transform="translate(0.000000,553.000000) scale(0.100000,-0.100000)"
fill="#000000" stroke="none">
<path d="M2514 5520 c-652 -64 -1245 -342 -1703 -801 -430 -429 -697 -967
-787 -1584 -25 -168 -25 -572 0 -740 90 -617 358 -1155 787 -1584 429 -430
967 -697 1584 -787 168 -25 572 -25 740 0 617 90 1155 357 1584 787 429 429
697 967 787 1584 25 168 25 572 0 740 -90 617 -357 1155 -787 1584 -422 423
-957 692 -1552 782 -152 23 -507 33 -653 19z m607 -330 c527 -78 993 -313
1375 -694 392 -393 620 -852 700 -1411 25 -177 23 -486 -5 -670 -82 -541 -312
-997 -695 -1381 -384 -383 -840 -613 -1381 -695 -197 -31 -503 -31 -700 0
-541 82 -997 312 -1381 695 -383 384 -613 840 -695 1381 -28 184 -30 493 -5
670 80 559 308 1018 700 1411 421 420 946 663 1541 714 139 12 392 2 546 -20z"/>
<path d="M2574 5000 c-118 -12 -208 -37 -299 -80 -214 -103 -330 -284 -365
-570 -14 -114 -14 -1796 0 -1910 25 -204 83 -334 200 -450 86 -87 157 -127
283 -164 101 -30 286 -50 367 -40 135 15 256 63 325 129 21 19 40 35 42 35 3
0 3 -179 1 -397 -5 -435 -7 -454 -66 -516 -60 -64 -90 -72 -286 -75 -258 -5
-319 15 -372 125 -26 52 -29 69 -32 190 l-4 133 -236 0 -235 0 6 -182 c6 -204
23 -295 78 -406 67 -137 214 -241 394 -277 174 -36 601 -29 765 11 281 69 439
263 480 588 6 49 10 429 10 963 l0 883 -244 0 -244 0 -4 -247 c-3 -235 -4
-250 -26 -290 -68 -128 -201 -196 -382 -196 -203 0 -298 79 -321 265 -5 46 -8
218 -7 383 l3 300 608 3 608 2 -3 598 c-4 580 -4 599 -26 677 -30 110 -91 229
-152 297 -91 101 -246 180 -410 208 -89 15 -357 21 -456 10z m384 -490 c57
-25 112 -79 139 -137 16 -34 18 -83 21 -470 l3 -433 -361 0 -361 0 3 423 c4
464 5 473 68 549 60 73 150 99 321 94 92 -3 126 -9 167 -26z"/>
</g>
</svg>
